<svg class="flex-shrink-0 w-5 h-5 inline-block mt-[-3px]"  xmlns="http://www.w3.org/2000/svg" xmlns:xlink="http://www.w3.org/1999/xlink" x="0px" y="0px"
	 width="943.418px" height="352.303px" viewBox="22.918 306.324 943.418 352.303"
	 enable-background="new 22.918 306.324 943.418 352.303" xml:space="preserve">
-    <defs>
-        <linearGradient id="gradient1" x1="0%" y1="0%" x2="100%" y2="0%">
-            <stop offset="0%" style="stop-color:#06b6d4;stop-opacity:1" />
-            <stop offset="100%" style="stop-color:#3f83f8;stop-opacity:1" />
-        </linearGradient>
-    </defs>
<path fill="url(#gradient1)" stroke="url(#gradient1)" stroke-width="11" stroke-miterlimit="10" d="M921.696,375.703
	c-26.121-28.114-54.904-46.897-86.258-56.259c-7.213-2.507-14.44-4.314-21.635-5.42c-7.135-1.106-20.81-1.62-27.678-1.62
	l-58.556-0.53v0.017l-121.595-0.038c-0.127,0.018-0.255,0.028-0.383,0.045l-409.128,0.523c-6.854,0-13.895,0.515-21.059,1.62
	c-7.212,1.106-14.438,2.912-21.635,5.42c-31.354,9.361-60.044,28.146-86.18,56.259c-26.105,28.146-39.173,63.098-39.173,104.964
	v0.002h0.015v0.576c0,48.004,13.582,88.281,40.81,120.711c27.178,32.476,65.821,49.405,115.896,50.854h103.544l-0.022-0.05h1.768
	v0.137l3.601-0.137h510.084c50.089-1.463,88.748-18.379,115.896-50.838c27.258-32.398,40.809-72.676,40.809-120.695v-0.001h0.017
	v-0.576C960.836,438.8,947.8,403.848,921.696,375.703z M554.389,463.441c22.18,14.951,46.571,28.86,73.221,41.866
	c0.344,0.357,0.826,0.607,1.371,0.793c0.498,0.173,0.996,0.438,1.355,0.779c3.254,1.402,6.353,2.912,9.452,4.408
	c3.022,1.403,6.03,2.803,8.896,4.221c15.138,7.571,26.494,16.263,34.033,26.013c7.568,9.703,11.354,20.326,11.354,31.852
	c-1.774,13.348-7.289,23.037-16.541,29.205c-7.665,5.153-17.469,7.968-29.369,8.529H480.21c1.967-3.987,3.554-8.087,4.743-12.3
	c1.792-5.731,2.976-11.526,3.521-17.336c0.513-5.795,0.777-10.887,0.777-15.639c0-18.736-4.75-34.391-14.282-46.959
	c-9.595-12.664-19.921-23.051-31.104-31.4c-2.492-1.838-5.125-3.505-7.804-5.094c-2.726-1.681-5.327-3.191-7.835-4.688
	c-2.912-1.776-5.903-3.504-8.925-5.094c-3.084-1.588-6.199-3.363-9.454-5.107c-11.168-5.452-23.223-11.34-36.197-17.834
	c-12.959-6.435-26.837-14.953-41.618-25.42c-4.313-2.82-7.741-6.729-10.249-11.604c-2.492-4.858-3.769-9.797-3.769-14.858
	c0-1.075,0.077-2.243,0.265-3.489c0.171-1.262,0.266-2.632,0.266-4.081c1.807-8.971,6.51-17.195,14.08-24.578
	c7.529-7.328,17.578-11.252,30.189-11.618h169.459c-6.67,11.347-11.481,40.877-11.076,48.112
	C521.198,428.099,532.286,448.503,554.389,463.441z M270.243,611.157l-62.426,0.565c-35.294,0-62.38-7.367-81.351-22.319
	c-18.909-14.938-32.32-31.479-40.217-49.517c-4.734-10.107-7.929-19.967-9.734-29.717s-2.741-18.021-2.741-24.89v-1.589
	c0.358-30.265,11.915-58.377,34.608-84.295c22.694-25.903,55.839-41.074,99.404-45.389h73.777
	c-6.68,11.347-11.106,34.794-11.101,48.112c0,25.979,11.09,46.398,33.207,61.321c22.164,14.951,46.556,28.86,73.205,41.866
	c0.342,0.357,0.84,0.607,1.354,0.793c0.529,0.173,1.027,0.438,1.37,0.779c3.271,1.402,6.371,2.912,9.455,4.408
	c3.037,1.403,6.028,2.803,8.925,4.221c15.139,7.571,26.479,16.263,34.048,26.013c7.554,9.703,11.339,20.326,11.339,31.852
	c-1.791,13.348-7.29,23.037-16.479,29.205c-7.705,5.153-17.517,7.968-29.409,8.529H271.355L270.243,611.157z M915.448,485.261
	c0,6.886-0.856,15.141-2.711,24.891c-1.792,9.75-5.032,19.64-9.688,29.778c-7.912,17.976-21.369,34.532-40.279,49.438
	c-18.971,14.937-46.072,22.304-81.336,21.738h-50.526c1.972-3.986,3.567-8.086,4.766-12.3c1.838-5.731,2.989-11.526,3.504-17.336
	c0.529-5.795,0.811-10.887,0.811-15.639c0-18.736-4.783-34.391-14.236-46.959c-9.704-12.664-19.983-23.051-31.151-31.4
	c-2.477-1.838-5.107-3.505-7.818-5.094c-2.726-1.681-5.356-3.191-7.817-4.688c-2.914-1.776-5.905-3.504-8.974-5.094
	c-3.006-1.588-6.168-3.363-9.422-5.107c-11.151-5.452-23.209-11.34-36.168-17.834c-12.99-6.435-26.867-14.953-41.647-25.42
	c-4.314-2.82-7.757-6.729-10.248-11.604c-2.492-4.858-3.785-9.797-3.785-14.858c0-1.075,0.093-2.243,0.279-3.489
	c0.155-1.262,0.25-2.632,0.25-4.081c1.821-8.971,6.524-17.195,14.063-24.578c7.555-7.336,17.631-11.262,30.248-11.62h114.955v-0.016
	h52.918c43.52,4.315,76.758,19.486,99.467,45.388c22.678,25.918,34.188,54.031,34.547,84.295V485.261z"/>
</svg>
